<svg width="19" height="17" xmlns="http://www.w3.org/2000/svg" xmlns:xlink="http://www.w3.org/1999/xlink">
 <title>Group 4</title>
 <desc>Created using Figma</desc>
 <defs>
  <path d="m10.2,5.05261c0,2.79049 -2.28335,5.05259 -5.1,5.05259c-2.81665,0 -5.1,-2.2621 -5.1,-5.05259c0,-2.79048 2.28335,-5.05261 5.1,-5.05261c2.81665,0 5.1,2.26213 5.1,5.05261z" id="path0_fill"/>
  <path d="m8.7,5.05261c0,1.94889 -1.59854,3.55262 -3.6,3.55262l0,2.99997c3.63185,0 6.6,-2.92051 6.6,-6.55259l-3,0zm-3.6,3.55262c-2.00146,0 -3.6,-1.60373 -3.6,-3.55262l-3,0c0,3.63208 2.96815,6.55259 6.6,6.55259l0,-2.99997zm-3.6,-3.55262c0,-1.94888 1.59854,-3.55261 3.6,-3.55261l0,-3c-3.63185,0 -6.6,2.92054 -6.6,6.55261l3,0zm3.6,-3.55261c2.00146,0 3.6,1.60373 3.6,3.55261l3,0c0,-3.63207 -2.96815,-6.55261 -6.6,-6.55261l0,3z" id="path1_stroke_2x"/>
  <path d="m0.67039,7.07309c1.24569,-2.48345 3.50074,-5.2993 6.19434,-6.09909c1.30531,-0.38758 2.74929,-0.31475 4.31787,0.55629c1.592,0.88404 3.3465,2.61109 5.178,5.59853l1.2788,-0.784c-1.9085,-3.11308 -3.8302,-5.07175 -5.7286,-6.1259c-1.9217,-1.06714 -3.78209,-1.18495 -5.47303,-0.68287c-3.2989,0.97952 -5.80385,4.26419 -7.10816,6.8645l1.34078,0.67254z" id="path2_stroke"/>
 </defs>
 <g>
  <title>background</title>
  <rect fill="none" id="canvas_background" height="402" width="582" y="-1" x="-1"/>
 </g>
 <g>
  <title>Layer 1</title>
  <g id="Canvas">
   <g id="Group 4">
    <g id="Ellipse 3">
     <mask transform="translate(-1696,1094) " id="mask0_outline_ins">
      <use id="svg_1" x="1700.400024" y="-1094" fill="white" xlink:href="#path0_fill"/>
     </mask>
     <g id="svg_2" mask="url(#mask0_outline_ins)">
      <use id="svg_3" x="4.400024" y="0" fill="#FFFFFF" xlink:href="#path1_stroke_2x"/>
     </g>
    </g>
    <g id="Vector 2">
     <use id="svg_4" x="1" y="9.26001" fill="#FFFFFF" xlink:href="#path2_stroke"/>
    </g>
   </g>
  </g>
 </g>
</svg>